<svg width="22" height="21" viewBox="0 0 22 21" fill="none" xmlns="http://www.w3.org/2000/svg">
<path d="M1.671 0.657594L21.337 9.5539C21.5355 9.64377 21.7031 9.78491 21.8204 9.96102C21.9377 10.1371 22 10.341 22 10.5492C22 10.7573 21.9377 10.9613 21.8204 11.1374C21.7031 11.3135 21.5355 11.4546 21.337 11.5445L1.671 20.4408C1.46931 20.5322 1.24408 20.5669 1.02215 20.5407C0.800211 20.5145 0.590917 20.4285 0.419194 20.293C0.247471 20.1574 0.120555 19.9781 0.0535643 19.7763C-0.0134267 19.5744 -0.01767 19.3587 0.0413399 19.1546L2.00887 12.3328C2.03296 12.2492 2.08253 12.1741 2.15141 12.117C2.22029 12.0598 2.30543 12.0231 2.39622 12.0115L11.9259 10.7871C11.9656 10.7818 12.0032 10.7669 12.0351 10.7439C12.067 10.7209 12.0921 10.6904 12.1079 10.6556L12.1247 10.6C12.132 10.5507 12.1216 10.5005 12.095 10.4575C12.0684 10.4146 12.0272 10.3814 11.9781 10.3634L11.9268 10.3501L2.40649 9.12665C2.31587 9.11481 2.23093 9.07803 2.16223 9.02091C2.09353 8.96378 2.0441 8.88881 2.02007 8.80533L0.0413399 1.94375C-0.01767 1.73972 -0.0134267 1.52394 0.0535643 1.32212C0.120555 1.12031 0.247471 0.940952 0.419194 0.805424C0.590917 0.669897 0.800211 0.583907 1.02215 0.557698C1.24408 0.531488 1.46931 0.566164 1.671 0.657594Z" fill="#C0DB27"/>
</svg>
